<svg width="521" height="649" viewBox="0 0 521 649" fill="none" xmlns="http://www.w3.org/2000/svg">
<mask id="mask0_97_790" style="mask-type:alpha" maskUnits="userSpaceOnUse" x="41" y="0" width="651" height="649">
<mask id="path-1-outside-1_97_790" maskUnits="userSpaceOnUse" x="40.7104" y="-0.874512" width="651" height="650" fill="black">
<rect fill="white" x="40.7104" y="-0.874512" width="651" height="650"/>
<path d="M366.64 161.687L387.068 0.125488L386.908 162.963L427.445 5.22911L407.017 166.791L467.024 15.2769L426.487 173.17L505.007 30.2687L444.84 181.782L540.755 49.8858L462.076 192.787L573.631 73.9685L477.876 205.706L603.475 101.879L491.76 220.538L629.489 133.298L503.73 237.125L651.353 167.747L513.625 254.987L668.748 204.589L521.125 273.967L681.356 243.345L526.232 293.743L689.016 283.376L528.786 313.839L691.57 324.046L528.786 334.253L689.016 364.715L526.232 354.508L681.356 404.747L521.125 374.285L668.748 443.662L513.625 393.264L651.353 480.504L503.73 411.126L629.489 514.953L491.76 427.554L603.475 546.372L477.876 442.386L573.631 574.283L462.076 455.464L540.755 598.206L444.84 466.309L505.007 617.823L426.487 475.081L467.024 632.815L407.017 481.301L427.445 643.022L386.908 485.129L387.068 648.126L366.64 486.405L346.212 648.126L346.212 485.129L305.676 643.022L326.263 481.301L266.257 632.815L306.793 475.081L228.274 617.823L288.44 466.309L192.525 598.206L271.204 455.464L159.489 574.283L255.404 442.386L129.805 546.372L241.52 427.554L103.792 514.953L229.55 411.126L81.9277 480.504L219.656 393.264L64.5321 443.662L212.155 374.285L51.9243 404.747L207.048 354.508L44.2639 364.715L204.494 334.253L41.7104 324.046L204.494 313.839L44.2639 283.376L207.048 293.743L51.9243 243.345L212.155 273.967L64.5321 204.589L219.656 254.987L81.9277 167.747L229.55 237.125L103.792 133.298L241.52 220.538L129.805 101.879L255.404 205.706L159.489 73.9685L271.204 192.787L192.525 49.8858L288.44 181.782L228.274 30.2687L306.793 173.17L266.257 15.2769L326.263 166.791L305.676 5.22911L346.212 162.963V0.125488L366.64 161.687Z"/>
</mask>
<path d="M366.64 161.687L387.068 0.125488L386.908 162.963L427.445 5.22911L407.017 166.791L467.024 15.2769L426.487 173.17L505.007 30.2687L444.84 181.782L540.755 49.8858L462.076 192.787L573.631 73.9685L477.876 205.706L603.475 101.879L491.76 220.538L629.489 133.298L503.73 237.125L651.353 167.747L513.625 254.987L668.748 204.589L521.125 273.967L681.356 243.345L526.232 293.743L689.016 283.376L528.786 313.839L691.57 324.046L528.786 334.253L689.016 364.715L526.232 354.508L681.356 404.747L521.125 374.285L668.748 443.662L513.625 393.264L651.353 480.504L503.73 411.126L629.489 514.953L491.76 427.554L603.475 546.372L477.876 442.386L573.631 574.283L462.076 455.464L540.755 598.206L444.84 466.309L505.007 617.823L426.487 475.081L467.024 632.815L407.017 481.301L427.445 643.022L386.908 485.129L387.068 648.126L366.64 486.405L346.212 648.126L346.212 485.129L305.676 643.022L326.263 481.301L266.257 632.815L306.793 475.081L228.274 617.823L288.44 466.309L192.525 598.206L271.204 455.464L159.489 574.283L255.404 442.386L129.805 546.372L241.52 427.554L103.792 514.953L229.55 411.126L81.9277 480.504L219.656 393.264L64.5321 443.662L212.155 374.285L51.9243 404.747L207.048 354.508L44.2639 364.715L204.494 334.253L41.7104 324.046L204.494 313.839L44.2639 283.376L207.048 293.743L51.9243 243.345L212.155 273.967L64.5321 204.589L219.656 254.987L81.9277 167.747L229.55 237.125L103.792 133.298L241.52 220.538L129.805 101.879L255.404 205.706L159.489 73.9685L271.204 192.787L192.525 49.8858L288.44 181.782L228.274 30.2687L306.793 173.17L266.257 15.2769L326.263 166.791L305.676 5.22911L346.212 162.963V0.125488L366.64 161.687Z" stroke="black" stroke-width="2" stroke-miterlimit="10" mask="url(#path-1-outside-1_97_790)"/>
</mask>
<g mask="url(#mask0_97_790)">
<rect x="-785.721" y="-37.9917" width="1152.83" height="702.852" rx="45" fill="black"/>
</g>
<path d="M95.7142 470.221L141.421 495.125L95.7142 520.229L70.7104 565.836L45.7067 520.229L-0.00022769 495.125L45.7067 470.221L70.7104 424.415L95.7142 470.221Z" fill="#B9FF66"/>
<path d="M217.101 243.69L298.777 288.192L217.101 333.051L172.421 414.547L127.741 333.051L46.0661 288.192L127.741 243.69L172.421 161.836L217.101 243.69Z" fill="#191A23"/>
</svg>
